<svg width="23" height="23" viewBox="0 0 23 23" fill="none" xmlns="http://www.w3.org/2000/svg">
<rect x="0.194824" y="0.194824" width="22.8052" height="22.8052" rx="2.11159" fill="#D9D9D9"/>
<mask id="path-2-inside-1_339_179" fill="white">
<path d="M11.2649 2.95844C9.52569 2.95844 7.82557 3.47416 6.3795 4.4404C4.93343 5.40663 3.80635 6.77998 3.1408 8.38677C2.47524 9.99355 2.3011 11.7616 2.6404 13.4674C2.9797 15.1731 3.81719 16.74 5.04697 17.9698C6.27675 19.1995 7.84359 20.037 9.54935 20.3763C11.2551 20.7156 13.0232 20.5415 14.63 19.8759C16.2368 19.2104 17.6101 18.0833 18.5763 16.6372C19.5426 15.1912 20.0583 13.491 20.0583 11.7519H16.3998C16.3998 12.7675 16.0986 13.7602 15.5344 14.6047C14.9702 15.4491 14.1682 16.1073 13.2299 16.4959C12.2916 16.8846 11.2592 16.9863 10.2631 16.7881C9.26701 16.59 8.35205 16.1009 7.63392 15.3828C6.91579 14.6647 6.42673 13.7497 6.2286 12.7536C6.03047 11.7576 6.13216 10.7251 6.52081 9.78681C6.90946 8.84853 7.56762 8.04656 8.41205 7.48233C9.25649 6.91809 10.2493 6.61693 11.2649 6.61693L11.2649 2.95844Z"/>
</mask>
<path d="M11.2649 2.95844C9.52569 2.95844 7.82557 3.47416 6.3795 4.4404C4.93343 5.40663 3.80635 6.77998 3.1408 8.38677C2.47524 9.99355 2.3011 11.7616 2.6404 13.4674C2.9797 15.1731 3.81719 16.74 5.04697 17.9698C6.27675 19.1995 7.84359 20.037 9.54935 20.3763C11.2551 20.7156 13.0232 20.5415 14.63 19.8759C16.2368 19.2104 17.6101 18.0833 18.5763 16.6372C19.5426 15.1912 20.0583 13.491 20.0583 11.7519H16.3998C16.3998 12.7675 16.0986 13.7602 15.5344 14.6047C14.9702 15.4491 14.1682 16.1073 13.2299 16.4959C12.2916 16.8846 11.2592 16.9863 10.2631 16.7881C9.26701 16.59 8.35205 16.1009 7.63392 15.3828C6.91579 14.6647 6.42673 13.7497 6.2286 12.7536C6.03047 11.7576 6.13216 10.7251 6.52081 9.78681C6.90946 8.84853 7.56762 8.04656 8.41205 7.48233C9.25649 6.91809 10.2493 6.61693 11.2649 6.61693L11.2649 2.95844Z" stroke="#1E1E1E" stroke-width="6.20713" mask="url(#path-2-inside-1_339_179)"/>
<path d="M11.0061 2.71767V11.7816C11.0061 11.989 11.2386 12.1115 11.41 11.9947C14.9001 9.61531 16.6062 8.22817 18.1193 6.23366C18.1943 6.13471 18.1859 5.99497 18.1008 5.90451C15.6277 3.27524 13.8397 2.6632 11.282 2.46123C11.1329 2.44945 11.0061 2.56804 11.0061 2.71767Z" fill="#F8991C"/>
<path d="M18.8209 6.28152C16.2478 9.04814 14.1923 10.6822 11.4859 12.5426C11.2723 12.6894 11.3812 13.0232 11.64 13.0108C14.8257 12.8583 17.3645 12.4065 21.1317 11.5439C21.2571 11.5152 21.3436 11.398 21.3311 11.2699C21.1357 9.25654 20.654 8.09897 19.2116 6.29435C19.1134 6.17149 18.928 6.16636 18.8209 6.28152Z" fill="#BC1421"/>
</svg>
