<svg width="32" height="32" viewBox="0 0 32 32" fill="none" xmlns="http://www.w3.org/2000/svg">
<path d="M8.00008 2.66675H18.6667V5.33341H8.00008V2.66675ZM5.33341 8.00008V5.33341H8.00008V8.00008H5.33341ZM5.33341 18.6667H2.66675V8.00008H5.33341V18.6667ZM8.00008 21.3334H5.33341V18.6667H8.00008V21.3334ZM18.6667 21.3334V24.0001H8.00008V21.3334H18.6667ZM21.3334 18.6667H18.6667V21.3334H21.3334V24.0001H24.0001V26.6667H26.6667V29.3334H29.3334V26.6667H26.6667V24.0001H24.0001V21.3334H21.3334V18.6667ZM21.3334 8.00008H24.0001V18.6667H21.3334V8.00008ZM21.3334 8.00008V5.33341H18.6667V8.00008H21.3334Z" fill="white"/>
</svg>
