<svg width="92" height="40" viewBox="0 0 92 40" fill="none" xmlns="http://www.w3.org/2000/svg">
<path d="M0 2.85714V37.1428H2.85714V40H88.5714V37.1428H91.4286V2.85714H88.5714V0H2.85714V2.85714H0Z" fill="#A8B820"/>
<g style="mix-blend-mode:hard-light">
<rect x="2.85718" width="85.7143" height="2.85714" fill="white" fill-opacity="0.5"/>
<rect y="2.85693" width="2.85714" height="2.85714" fill="white" fill-opacity="0.5"/>
<rect x="88.5714" y="2.85693" width="2.85714" height="2.85714" fill="white" fill-opacity="0.5"/>
</g>
<rect x="88.5714" y="40" width="85.7143" height="2.85714" transform="rotate(180 88.5714 40)" fill="black" fill-opacity="0.5"/>
<rect x="91.4286" y="37.1426" width="2.85714" height="2.85714" transform="rotate(180 91.4286 37.1426)" fill="black" fill-opacity="0.5"/>
<rect x="2.85718" y="37.1426" width="2.85714" height="2.85714" transform="rotate(180 2.85718 37.1426)" fill="black" fill-opacity="0.5"/>
<g filter="url(#filter0_ddd_18_509)">
<path d="M38.5715 8.57129H41.4287V25.7141H38.5715V8.57129Z" fill="white"/>
<path d="M47.143 8.57129H50.0001V25.7141H47.143V8.57129Z" fill="white"/>
<path d="M47.143 25.7141V28.5713H41.4287L41.4287 25.7141H47.143Z" fill="white"/>
<path d="M24.2858 8.57129H27.1429V28.5713H24.2858V8.57129Z" fill="white"/>
<path d="M32.8572 19.9999H35.7143V25.7141H32.8572V19.9999Z" fill="white"/>
<path d="M32.8572 25.7141V28.5713H27.1429V25.7141H32.8572Z" fill="white"/>
<path d="M32.8572 11.4284H35.7143V17.1427H32.8572V11.4284Z" fill="white"/>
<path d="M27.1429 8.57129H32.8572V11.4284H27.1429V8.57129Z" fill="white"/>
<path d="M27.1429 17.1427H32.8572V19.9999H27.1429V17.1427Z" fill="white"/>
<path d="M52.8572 11.4284H55.7143V25.7141H52.8572V11.4284Z" fill="white"/>
<path d="M55.7143 25.7141H61.4286V28.5713H55.7143V25.7141Z" fill="white"/>
<path d="M55.7143 8.57129H61.4286V11.4284H55.7143V8.57129Z" fill="white"/>
<path d="M58.5715 17.1427H64.2857V19.9999H58.5715V17.1427Z" fill="white"/>
<path d="M61.4286 11.4284H64.2857V14.2856H61.4286V11.4284Z" fill="white"/>
<path d="M61.4286 19.9999H64.2857V25.7141H61.4286V19.9999Z" fill="white"/>
</g>
<defs>
<filter id="filter0_ddd_18_509" x="24.2858" y="8.57129" width="42" height="22" filterUnits="userSpaceOnUse" color-interpolation-filters="sRGB">
<feFlood flood-opacity="0" result="BackgroundImageFix"/>
<feColorMatrix in="SourceAlpha" type="matrix" values="0 0 0 0 0 0 0 0 0 0 0 0 0 0 0 0 0 0 127 0" result="hardAlpha"/>
<feOffset dy="2"/>
<feComposite in2="hardAlpha" operator="out"/>
<feColorMatrix type="matrix" values="0 0 0 0 0.501961 0 0 0 0 0.470588 0 0 0 0 0.439216 0 0 0 1 0"/>
<feBlend mode="normal" in2="BackgroundImageFix" result="effect1_dropShadow_18_509"/>
<feColorMatrix in="SourceAlpha" type="matrix" values="0 0 0 0 0 0 0 0 0 0 0 0 0 0 0 0 0 0 127 0" result="hardAlpha"/>
<feOffset dx="2"/>
<feComposite in2="hardAlpha" operator="out"/>
<feColorMatrix type="matrix" values="0 0 0 0 0.501961 0 0 0 0 0.470588 0 0 0 0 0.439216 0 0 0 1 0"/>
<feBlend mode="normal" in2="effect1_dropShadow_18_509" result="effect2_dropShadow_18_509"/>
<feColorMatrix in="SourceAlpha" type="matrix" values="0 0 0 0 0 0 0 0 0 0 0 0 0 0 0 0 0 0 127 0" result="hardAlpha"/>
<feOffset dx="2" dy="2"/>
<feComposite in2="hardAlpha" operator="out"/>
<feColorMatrix type="matrix" values="0 0 0 0 0.501961 0 0 0 0 0.470588 0 0 0 0 0.439216 0 0 0 1 0"/>
<feBlend mode="normal" in2="effect2_dropShadow_18_509" result="effect3_dropShadow_18_509"/>
<feBlend mode="normal" in="SourceGraphic" in2="effect3_dropShadow_18_509" result="shape"/>
</filter>
</defs>
</svg>
