<svg width="92" height="40" viewBox="0 0 92 40" fill="none" xmlns="http://www.w3.org/2000/svg">
<path d="M0.571411 2.85714V37.1428H3.42855V40H89.1428V37.1428H92V2.85714H89.1428V0H3.42855V2.85714H0.571411Z" fill="#7038F8"/>
<g style="mix-blend-mode:hard-light">
<rect x="3.42859" width="85.7143" height="2.85714" fill="white" fill-opacity="0.5"/>
<rect x="0.571411" y="2.85693" width="2.85714" height="2.85714" fill="white" fill-opacity="0.5"/>
<rect x="89.1428" y="2.85693" width="2.85714" height="2.85714" fill="white" fill-opacity="0.5"/>
</g>
<rect x="89.1428" y="40" width="85.7143" height="2.85714" transform="rotate(180 89.1428 40)" fill="black" fill-opacity="0.5"/>
<rect x="92" y="37.1426" width="2.85714" height="2.85714" transform="rotate(180 92 37.1426)" fill="black" fill-opacity="0.5"/>
<rect x="3.42859" y="37.1426" width="2.85714" height="2.85714" transform="rotate(180 3.42859 37.1426)" fill="black" fill-opacity="0.5"/>
<g filter="url(#filter0_ddd_18_491)">
<path d="M42 12.8571H44.8572V30H42V12.8571Z" fill="white"/>
<path d="M33.4286 12.8571H36.2857V30H33.4286V12.8571Z" fill="white"/>
<path d="M36.2857 10H42V12.8571H36.2857V10Z" fill="white"/>
<path d="M36.2857 18.5714H42V21.4286H36.2857V18.5714Z" fill="white"/>
<path d="M19.1429 10H22.0001V30H19.1429V10Z" fill="white"/>
<path d="M27.7144 21.4286H30.5715V30H27.7144V21.4286Z" fill="white"/>
<path d="M27.7144 12.8571H30.5715V18.5714H27.7144V12.8571Z" fill="white"/>
<path d="M22.0001 10H27.7144V12.8571H22.0001V10Z" fill="white"/>
<path d="M22.0001 18.5714H27.7144V21.4286H22.0001V18.5714Z" fill="white"/>
<path d="M4.85718 10H7.71432V30H4.85718V10Z" fill="white"/>
<path d="M4.85718 27.1429H13.4286V30H4.85718V27.1429Z" fill="white"/>
<path d="M6.28575 10H13.4286V12.8571H6.28575V10Z" fill="white"/>
<path d="M13.4286 12.8571H16.2857V27.1429H13.4286V12.8571Z" fill="white"/>
<path d="M62 12.8571H64.8571V27.1429H62V12.8571Z" fill="white"/>
<path d="M64.8571 27.1429H70.5714V30H64.8571V27.1429Z" fill="white"/>
<path d="M64.8571 10H70.5714V12.8571H64.8571V10Z" fill="white"/>
<path d="M70.5714 12.8571H73.4286V27.1429H70.5714V12.8571Z" fill="white"/>
<path d="M76.2858 10H79.1429V30H76.2858V10Z" fill="white"/>
<path d="M84.8572 10H87.7143V30H84.8572V10Z" fill="white"/>
<path d="M79.1429 12.8571H82.0001V18.5714H79.1429V12.8571Z" fill="white"/>
<path d="M82.0001 18.5714H84.8572V24.2857H82.0001V18.5714Z" fill="white"/>
<path d="M47.7144 12.8571H50.5715V27.1429H47.7144V12.8571Z" fill="white"/>
<path d="M50.5715 27.1429H56.2858V30H50.5715V27.1429Z" fill="white"/>
<path d="M50.5715 10H56.2858V12.8571H50.5715V10Z" fill="white"/>
<path d="M53.4286 18.5714H59.1429V21.4286H53.4286V18.5714Z" fill="white"/>
<path d="M56.2858 12.8571H59.1429V15.7143H56.2858V12.8571Z" fill="white"/>
<path d="M56.2858 21.4286H59.1429V27.1429H56.2858V21.4286Z" fill="white"/>
</g>
<defs>
<filter id="filter0_ddd_18_491" x="4.85718" y="10" width="84.8572" height="22" filterUnits="userSpaceOnUse" color-interpolation-filters="sRGB">
<feFlood flood-opacity="0" result="BackgroundImageFix"/>
<feColorMatrix in="SourceAlpha" type="matrix" values="0 0 0 0 0 0 0 0 0 0 0 0 0 0 0 0 0 0 127 0" result="hardAlpha"/>
<feOffset dy="2"/>
<feComposite in2="hardAlpha" operator="out"/>
<feColorMatrix type="matrix" values="0 0 0 0 0.501961 0 0 0 0 0.470588 0 0 0 0 0.439216 0 0 0 1 0"/>
<feBlend mode="normal" in2="BackgroundImageFix" result="effect1_dropShadow_18_491"/>
<feColorMatrix in="SourceAlpha" type="matrix" values="0 0 0 0 0 0 0 0 0 0 0 0 0 0 0 0 0 0 127 0" result="hardAlpha"/>
<feOffset dx="2"/>
<feComposite in2="hardAlpha" operator="out"/>
<feColorMatrix type="matrix" values="0 0 0 0 0.501961 0 0 0 0 0.470588 0 0 0 0 0.439216 0 0 0 1 0"/>
<feBlend mode="normal" in2="effect1_dropShadow_18_491" result="effect2_dropShadow_18_491"/>
<feColorMatrix in="SourceAlpha" type="matrix" values="0 0 0 0 0 0 0 0 0 0 0 0 0 0 0 0 0 0 127 0" result="hardAlpha"/>
<feOffset dx="2" dy="2"/>
<feComposite in2="hardAlpha" operator="out"/>
<feColorMatrix type="matrix" values="0 0 0 0 0.501961 0 0 0 0 0.470588 0 0 0 0 0.439216 0 0 0 1 0"/>
<feBlend mode="normal" in2="effect2_dropShadow_18_491" result="effect3_dropShadow_18_491"/>
<feBlend mode="normal" in="SourceGraphic" in2="effect3_dropShadow_18_491" result="shape"/>
</filter>
</defs>
</svg>
