<svg width="92" height="40" viewBox="0 0 92 40" fill="none" xmlns="http://www.w3.org/2000/svg">
<path d="M0 2.85714V37.1428H2.85714V40H88.5714V37.1428H91.4286V2.85714H88.5714V0H2.85714V2.85714H0Z" fill="#C03028"/>
<rect x="2.85718" width="85.7143" height="2.85714" fill="#F08030"/>
<rect y="2.85693" width="2.85714" height="2.85714" fill="#F08030"/>
<rect x="88.5714" y="2.85693" width="2.85714" height="2.85714" fill="#F08030"/>
<rect x="88.5714" y="40" width="85.7143" height="2.85714" transform="rotate(180 88.5714 40)" fill="black" fill-opacity="0.5"/>
<rect x="91.4286" y="37.1426" width="2.85714" height="2.85714" transform="rotate(180 91.4286 37.1426)" fill="black" fill-opacity="0.5"/>
<rect x="2.85718" y="37.1426" width="2.85714" height="2.85714" transform="rotate(180 2.85718 37.1426)" fill="black" fill-opacity="0.5"/>
<g filter="url(#filter0_ddd_18_644)">
<path d="M15.7142 8.57129H18.5714V28.5713H15.7142V8.57129Z" fill="white"/>
<path d="M18.5714 8.57129H27.1428V11.4284H18.5714V8.57129Z" fill="white"/>
<path d="M17.1428 17.1427H24.2857V19.9999H17.1428V17.1427Z" fill="white"/>
<path d="M72.8571 11.4284H75.7143V28.5713H72.8571V11.4284Z" fill="white"/>
<path d="M70 8.57129H78.5714V11.4284H70V8.57129Z" fill="white"/>
<path d="M32.8571 8.57129H35.7143V28.5713H32.8571V8.57129Z" fill="white"/>
<path d="M32.8571 8.57129H38.5714V11.4284H32.8571V8.57129Z" fill="white"/>
<path d="M30 8.57129H35.7143V11.4284H30V8.57129Z" fill="white"/>
<path d="M30 25.7141H35.7143V28.5713H30V25.7141Z" fill="white"/>
<path d="M32.8571 25.7141H38.5714V28.5713H32.8571V25.7141Z" fill="white"/>
<path d="M41.4285 11.4284H44.2856V25.7141H41.4285V11.4284Z" fill="white"/>
<path d="M44.2856 25.7141H49.9999V28.5713H44.2856V25.7141Z" fill="white"/>
<path d="M44.2856 8.57129H49.9999V11.4284H44.2856V8.57129Z" fill="white"/>
<path d="M47.1428 17.1427H52.857V19.9999H47.1428V17.1427Z" fill="white"/>
<path d="M49.9999 11.4284H52.857V14.2856H49.9999V11.4284Z" fill="white"/>
<path d="M49.9999 19.9999H52.857V25.7141H49.9999V19.9999Z" fill="white"/>
<path d="M55.7142 8.57129H58.5714V28.5713H55.7142V8.57129Z" fill="white"/>
<path d="M64.2857 8.57129H67.1428V28.5713H64.2857V8.57129Z" fill="white"/>
<path d="M57.1428 17.1427H65.7142V19.9999H57.1428V17.1427Z" fill="white"/>
</g>
<defs>
<filter id="filter0_ddd_18_644" x="15.7142" y="8.57129" width="64.8572" height="22" filterUnits="userSpaceOnUse" color-interpolation-filters="sRGB">
<feFlood flood-opacity="0" result="BackgroundImageFix"/>
<feColorMatrix in="SourceAlpha" type="matrix" values="0 0 0 0 0 0 0 0 0 0 0 0 0 0 0 0 0 0 127 0" result="hardAlpha"/>
<feOffset dy="2"/>
<feComposite in2="hardAlpha" operator="out"/>
<feColorMatrix type="matrix" values="0 0 0 0 0.501961 0 0 0 0 0.470588 0 0 0 0 0.439216 0 0 0 1 0"/>
<feBlend mode="normal" in2="BackgroundImageFix" result="effect1_dropShadow_18_644"/>
<feColorMatrix in="SourceAlpha" type="matrix" values="0 0 0 0 0 0 0 0 0 0 0 0 0 0 0 0 0 0 127 0" result="hardAlpha"/>
<feOffset dx="2"/>
<feComposite in2="hardAlpha" operator="out"/>
<feColorMatrix type="matrix" values="0 0 0 0 0.501961 0 0 0 0 0.470588 0 0 0 0 0.439216 0 0 0 1 0"/>
<feBlend mode="normal" in2="effect1_dropShadow_18_644" result="effect2_dropShadow_18_644"/>
<feColorMatrix in="SourceAlpha" type="matrix" values="0 0 0 0 0 0 0 0 0 0 0 0 0 0 0 0 0 0 127 0" result="hardAlpha"/>
<feOffset dx="2" dy="2"/>
<feComposite in2="hardAlpha" operator="out"/>
<feColorMatrix type="matrix" values="0 0 0 0 0.501961 0 0 0 0 0.470588 0 0 0 0 0.439216 0 0 0 1 0"/>
<feBlend mode="normal" in2="effect2_dropShadow_18_644" result="effect3_dropShadow_18_644"/>
<feBlend mode="normal" in="SourceGraphic" in2="effect3_dropShadow_18_644" result="shape"/>
</filter>
</defs>
</svg>
