<svg width="92" height="40" viewBox="0 0 92 40" fill="none" xmlns="http://www.w3.org/2000/svg">
<path d="M0 2.85714V37.1428H2.85714V40H88.5714V37.1428H91.4286V2.85714H88.5714V0H2.85714V2.85714H0Z" fill="#705898"/>
<g style="mix-blend-mode:hard-light">
<rect x="2.85718" width="85.7143" height="2.85714" fill="white" fill-opacity="0.5"/>
<rect y="2.85693" width="2.85714" height="2.85714" fill="white" fill-opacity="0.5"/>
<rect x="88.5714" y="2.85693" width="2.85714" height="2.85714" fill="white" fill-opacity="0.5"/>
</g>
<rect x="88.5714" y="40" width="85.7143" height="2.85714" transform="rotate(180 88.5714 40)" fill="black" fill-opacity="0.5"/>
<rect x="91.4286" y="37.1426" width="2.85714" height="2.85714" transform="rotate(180 91.4286 37.1426)" fill="black" fill-opacity="0.5"/>
<rect x="2.85718" y="37.1426" width="2.85714" height="2.85714" transform="rotate(180 2.85718 37.1426)" fill="black" fill-opacity="0.5"/>
<g filter="url(#filter0_ddd_18_609)">
<path d="M72.8571 11.4284H75.7143V28.5713H72.8571V11.4284Z" fill="white"/>
<path d="M70 8.57129H78.5714V11.4284H70V8.57129Z" fill="white"/>
<path d="M58.5715 8.57129H64.2858V11.4284H58.5715V8.57129Z" fill="white"/>
<path d="M55.7144 11.4284H58.5715V17.1427H55.7144V11.4284Z" fill="white"/>
<path d="M64.2858 19.9999H67.1429V25.7141H64.2858V19.9999Z" fill="white"/>
<path d="M64.2858 11.4284H67.1429V14.2856H64.2858V11.4284Z" fill="white"/>
<path d="M55.7144 22.857H58.5715V25.7141H55.7144V22.857Z" fill="white"/>
<path d="M58.5715 17.1427H64.2858V19.9999H58.5715V17.1427Z" fill="white"/>
<path d="M58.5715 25.7141H64.2858V28.5713H58.5715V25.7141Z" fill="white"/>
<path d="M41.4286 11.4284H44.2857V25.7141H41.4286V11.4284Z" fill="white"/>
<path d="M44.2857 25.7141H50V28.5713H44.2857V25.7141Z" fill="white"/>
<path d="M44.2857 8.57129H50V11.4284H44.2857V8.57129Z" fill="white"/>
<path d="M50 11.4284H52.8572V25.7141H50V11.4284Z" fill="white"/>
<path d="M12.8572 11.4284H15.7143V25.7141H12.8572V11.4284Z" fill="white"/>
<path d="M15.7143 25.7141H21.4286V28.5713H15.7143V25.7141Z" fill="white"/>
<path d="M15.7143 8.57129H21.4286V11.4284H15.7143V8.57129Z" fill="white"/>
<path d="M18.5715 17.1427H24.2857V19.9999H18.5715V17.1427Z" fill="white"/>
<path d="M21.4286 11.4284H24.2857V14.2856H21.4286V11.4284Z" fill="white"/>
<path d="M21.4286 19.9999H24.2857V25.7141H21.4286V19.9999Z" fill="white"/>
<path d="M27.1429 8.57129H30.0001V28.5713H27.1429V8.57129Z" fill="white"/>
<path d="M35.7144 8.57129H38.5715V28.5713H35.7144V8.57129Z" fill="white"/>
<path d="M28.5715 17.1427H37.1429V19.9999H28.5715V17.1427Z" fill="white"/>
</g>
<defs>
<filter id="filter0_ddd_18_609" x="12.8572" y="8.57129" width="67.7142" height="22" filterUnits="userSpaceOnUse" color-interpolation-filters="sRGB">
<feFlood flood-opacity="0" result="BackgroundImageFix"/>
<feColorMatrix in="SourceAlpha" type="matrix" values="0 0 0 0 0 0 0 0 0 0 0 0 0 0 0 0 0 0 127 0" result="hardAlpha"/>
<feOffset dy="2"/>
<feComposite in2="hardAlpha" operator="out"/>
<feColorMatrix type="matrix" values="0 0 0 0 0.501961 0 0 0 0 0.470588 0 0 0 0 0.439216 0 0 0 1 0"/>
<feBlend mode="normal" in2="BackgroundImageFix" result="effect1_dropShadow_18_609"/>
<feColorMatrix in="SourceAlpha" type="matrix" values="0 0 0 0 0 0 0 0 0 0 0 0 0 0 0 0 0 0 127 0" result="hardAlpha"/>
<feOffset dx="2"/>
<feComposite in2="hardAlpha" operator="out"/>
<feColorMatrix type="matrix" values="0 0 0 0 0.501961 0 0 0 0 0.470588 0 0 0 0 0.439216 0 0 0 1 0"/>
<feBlend mode="normal" in2="effect1_dropShadow_18_609" result="effect2_dropShadow_18_609"/>
<feColorMatrix in="SourceAlpha" type="matrix" values="0 0 0 0 0 0 0 0 0 0 0 0 0 0 0 0 0 0 127 0" result="hardAlpha"/>
<feOffset dx="2" dy="2"/>
<feComposite in2="hardAlpha" operator="out"/>
<feColorMatrix type="matrix" values="0 0 0 0 0.501961 0 0 0 0 0.470588 0 0 0 0 0.439216 0 0 0 1 0"/>
<feBlend mode="normal" in2="effect2_dropShadow_18_609" result="effect3_dropShadow_18_609"/>
<feBlend mode="normal" in="SourceGraphic" in2="effect3_dropShadow_18_609" result="shape"/>
</filter>
</defs>
</svg>
