<svg width="92" height="40" viewBox="0 0 92 40" fill="none" xmlns="http://www.w3.org/2000/svg">
<path d="M0.571411 2.85714V37.1428H3.42855V40H89.1428V37.1428H92V2.85714H89.1428V0H3.42855V2.85714H0.571411Z" fill="#98D8D8"/>
<g style="mix-blend-mode:hard-light">
<rect x="3.42859" width="85.7143" height="2.85714" fill="white" fill-opacity="0.5"/>
<rect x="0.571411" y="2.85693" width="2.85714" height="2.85714" fill="white" fill-opacity="0.5"/>
<rect x="89.1428" y="2.85693" width="2.85714" height="2.85714" fill="white" fill-opacity="0.5"/>
</g>
<rect x="89.1428" y="40" width="85.7143" height="2.85714" transform="rotate(180 89.1428 40)" fill="black" fill-opacity="0.5"/>
<rect x="92" y="37.1426" width="2.85714" height="2.85714" transform="rotate(180 92 37.1426)" fill="black" fill-opacity="0.5"/>
<rect x="3.42859" y="37.1426" width="2.85714" height="2.85714" transform="rotate(180 3.42859 37.1426)" fill="black" fill-opacity="0.5"/>
<g filter="url(#filter0_ddd_18_440)">
<path d="M53.4285 17.1427H61.9999V19.9999H53.4285V17.1427Z" fill="white"/>
<path d="M56.2856 11.4284L56.2856 25.7141H53.4285L53.4285 11.4284L56.2856 11.4284Z" fill="white"/>
<path d="M53.4285 25.7141H64.857V28.5713H53.4285L53.4285 25.7141Z" fill="white"/>
<path d="M53.4285 8.57129H64.857V11.4284L53.4285 11.4284L53.4285 8.57129Z" fill="white"/>
<path d="M30.5714 8.57129H33.4285V28.5713H30.5714V8.57129Z" fill="white"/>
<path d="M30.5714 8.57129H36.2857V11.4284H30.5714V8.57129Z" fill="white"/>
<path d="M27.7142 8.57129H33.4285V11.4284H27.7142V8.57129Z" fill="white"/>
<path d="M27.7142 25.7141H33.4285V28.5713H27.7142V25.7141Z" fill="white"/>
<path d="M30.5714 25.7141H36.2857V28.5713H30.5714V25.7141Z" fill="white"/>
<path d="M39.1428 11.4284H42V25.7141H39.1428V11.4284Z" fill="white"/>
<path d="M42 25.7141H47.7142V28.5713H42V25.7141Z" fill="white"/>
<path d="M42 8.57129H47.7142V11.4284H42V8.57129Z" fill="white"/>
<path d="M47.7142 19.9999H50.5714V25.7141H47.7142V19.9999Z" fill="white"/>
<path d="M47.7142 11.4284H50.5714V14.2856H47.7142V11.4284Z" fill="white"/>
</g>
<defs>
<filter id="filter0_ddd_18_440" x="27.7142" y="8.57129" width="39.1428" height="22" filterUnits="userSpaceOnUse" color-interpolation-filters="sRGB">
<feFlood flood-opacity="0" result="BackgroundImageFix"/>
<feColorMatrix in="SourceAlpha" type="matrix" values="0 0 0 0 0 0 0 0 0 0 0 0 0 0 0 0 0 0 127 0" result="hardAlpha"/>
<feOffset dy="2"/>
<feComposite in2="hardAlpha" operator="out"/>
<feColorMatrix type="matrix" values="0 0 0 0 0.501961 0 0 0 0 0.470588 0 0 0 0 0.439216 0 0 0 1 0"/>
<feBlend mode="normal" in2="BackgroundImageFix" result="effect1_dropShadow_18_440"/>
<feColorMatrix in="SourceAlpha" type="matrix" values="0 0 0 0 0 0 0 0 0 0 0 0 0 0 0 0 0 0 127 0" result="hardAlpha"/>
<feOffset dx="2"/>
<feComposite in2="hardAlpha" operator="out"/>
<feColorMatrix type="matrix" values="0 0 0 0 0.501961 0 0 0 0 0.470588 0 0 0 0 0.439216 0 0 0 1 0"/>
<feBlend mode="normal" in2="effect1_dropShadow_18_440" result="effect2_dropShadow_18_440"/>
<feColorMatrix in="SourceAlpha" type="matrix" values="0 0 0 0 0 0 0 0 0 0 0 0 0 0 0 0 0 0 127 0" result="hardAlpha"/>
<feOffset dx="2" dy="2"/>
<feComposite in2="hardAlpha" operator="out"/>
<feColorMatrix type="matrix" values="0 0 0 0 0.501961 0 0 0 0 0.470588 0 0 0 0 0.439216 0 0 0 1 0"/>
<feBlend mode="normal" in2="effect2_dropShadow_18_440" result="effect3_dropShadow_18_440"/>
<feBlend mode="normal" in="SourceGraphic" in2="effect3_dropShadow_18_440" result="shape"/>
</filter>
</defs>
</svg>
