<svg width="92" height="40" viewBox="0 0 92 40" fill="none" xmlns="http://www.w3.org/2000/svg">
<path d="M0 2.85714V37.1428H2.85714V40H88.5714V37.1428H91.4286V2.85714H88.5714V0H2.85714V2.85714H0Z" fill="#F85888"/>
<g style="mix-blend-mode:hard-light">
<rect x="2.85718" width="85.7143" height="2.85714" fill="white" fill-opacity="0.5"/>
<rect y="2.85693" width="2.85714" height="2.85714" fill="white" fill-opacity="0.5"/>
<rect x="88.5714" y="2.85693" width="2.85714" height="2.85714" fill="white" fill-opacity="0.5"/>
</g>
<rect x="88.5714" y="40" width="85.7143" height="2.85714" transform="rotate(180 88.5714 40)" fill="black" fill-opacity="0.5"/>
<rect x="91.4286" y="37.1426" width="2.85714" height="2.85714" transform="rotate(180 91.4286 37.1426)" fill="black" fill-opacity="0.5"/>
<rect x="2.85718" y="37.1426" width="2.85714" height="2.85714" transform="rotate(180 2.85718 37.1426)" fill="black" fill-opacity="0.5"/>
<g filter="url(#filter0_ddd_18_626)">
<path d="M22.8571 8.57129H28.5714V11.4284H22.8571V8.57129Z" fill="white"/>
<path d="M20 11.4284H22.8571V17.1427H20V11.4284Z" fill="white"/>
<path d="M28.5714 19.9999H31.4286V25.7141H28.5714V19.9999Z" fill="white"/>
<path d="M28.5714 11.4284H31.4286V14.2856H28.5714V11.4284Z" fill="white"/>
<path d="M20 22.857H22.8571V25.7141H20V22.857Z" fill="white"/>
<path d="M22.8571 17.1427H28.5714V19.9999H22.8571V17.1427Z" fill="white"/>
<path d="M22.8571 25.7141H28.5714V28.5713H22.8571V25.7141Z" fill="white"/>
<path d="M8.57138 8.57129H14.2857V11.4284H8.57138V8.57129Z" fill="white"/>
<path d="M8.57138 17.1427H14.2857V19.9999H8.57138V17.1427Z" fill="white"/>
<path d="M14.2857 11.4284H17.1428V17.1427H14.2857V11.4284Z" fill="white"/>
<path d="M5.71423 8.57129H8.57138V28.5713H5.71423V8.57129Z" fill="white"/>
<path d="M39.9999 8.57129H42.8571V19.9999H39.9999V8.57129Z" fill="white"/>
<path d="M34.2856 8.57129H37.1428V19.9999H34.2856V8.57129Z" fill="white"/>
<path d="M37.1428 19.9999H39.9999V28.5713H37.1428V19.9999Z" fill="white"/>
<path d="M45.7142 11.4284H48.5714V25.7141H45.7142V11.4284Z" fill="white"/>
<path d="M48.5714 25.7141H54.2857V28.5713H48.5714V25.7141Z" fill="white"/>
<path d="M48.5714 8.57129H54.2857V11.4284H48.5714V8.57129Z" fill="white"/>
<path d="M54.2857 19.9999H57.1428V25.7141H54.2857V19.9999Z" fill="white"/>
<path d="M54.2857 11.4284H57.1428V14.2856H54.2857V11.4284Z" fill="white"/>
<path d="M74.2856 11.4284H77.1428V25.7141H74.2856V11.4284Z" fill="white"/>
<path d="M77.1428 25.7141H82.8571V28.5713H77.1428V25.7141Z" fill="white"/>
<path d="M77.1428 8.57129H82.8571V11.4284H77.1428V8.57129Z" fill="white"/>
<path d="M82.8571 19.9999H85.7142V25.7141H82.8571V19.9999Z" fill="white"/>
<path d="M82.8571 11.4284H85.7142V14.2856H82.8571V11.4284Z" fill="white"/>
<path d="M60 8.57129H62.8571V28.5713H60V8.57129Z" fill="white"/>
<path d="M68.5714 8.57129H71.4286V28.5713H68.5714V8.57129Z" fill="white"/>
<path d="M61.4286 17.1427H70V19.9999H61.4286V17.1427Z" fill="white"/>
</g>
<defs>
<filter id="filter0_ddd_18_626" x="5.71423" y="8.57129" width="82" height="22" filterUnits="userSpaceOnUse" color-interpolation-filters="sRGB">
<feFlood flood-opacity="0" result="BackgroundImageFix"/>
<feColorMatrix in="SourceAlpha" type="matrix" values="0 0 0 0 0 0 0 0 0 0 0 0 0 0 0 0 0 0 127 0" result="hardAlpha"/>
<feOffset dy="2"/>
<feComposite in2="hardAlpha" operator="out"/>
<feColorMatrix type="matrix" values="0 0 0 0 0.501961 0 0 0 0 0.470588 0 0 0 0 0.439216 0 0 0 1 0"/>
<feBlend mode="normal" in2="BackgroundImageFix" result="effect1_dropShadow_18_626"/>
<feColorMatrix in="SourceAlpha" type="matrix" values="0 0 0 0 0 0 0 0 0 0 0 0 0 0 0 0 0 0 127 0" result="hardAlpha"/>
<feOffset dx="2"/>
<feComposite in2="hardAlpha" operator="out"/>
<feColorMatrix type="matrix" values="0 0 0 0 0.501961 0 0 0 0 0.470588 0 0 0 0 0.439216 0 0 0 1 0"/>
<feBlend mode="normal" in2="effect1_dropShadow_18_626" result="effect2_dropShadow_18_626"/>
<feColorMatrix in="SourceAlpha" type="matrix" values="0 0 0 0 0 0 0 0 0 0 0 0 0 0 0 0 0 0 127 0" result="hardAlpha"/>
<feOffset dx="2" dy="2"/>
<feComposite in2="hardAlpha" operator="out"/>
<feColorMatrix type="matrix" values="0 0 0 0 0.501961 0 0 0 0 0.470588 0 0 0 0 0.439216 0 0 0 1 0"/>
<feBlend mode="normal" in2="effect2_dropShadow_18_626" result="effect3_dropShadow_18_626"/>
<feBlend mode="normal" in="SourceGraphic" in2="effect3_dropShadow_18_626" result="shape"/>
</filter>
</defs>
</svg>
