<svg width="92" height="40" viewBox="0 0 92 40" fill="none" xmlns="http://www.w3.org/2000/svg">
<path d="M0 2.85714V37.1428H2.85714V40H88.5714V37.1428H91.4286V2.85714H88.5714V0H2.85714V2.85714H0Z" fill="#B8A038"/>
<rect x="2.85718" width="85.7143" height="2.85714" fill="#E0C068"/>
<rect y="2.85693" width="2.85714" height="2.85714" fill="#E0C068"/>
<rect x="88.5714" y="2.85693" width="2.85714" height="2.85714" fill="#E0C068"/>
<rect x="88.5714" y="40" width="85.7143" height="2.85714" transform="rotate(180 88.5714 40)" fill="black" fill-opacity="0.5"/>
<rect x="91.4286" y="37.1426" width="2.85714" height="2.85714" transform="rotate(180 91.4286 37.1426)" fill="black" fill-opacity="0.5"/>
<rect x="2.85718" y="37.1426" width="2.85714" height="2.85714" transform="rotate(180 2.85718 37.1426)" fill="black" fill-opacity="0.5"/>
<g filter="url(#filter0_ddd_18_593)">
<path d="M18.5714 8.57129H21.4286V28.5713H18.5714V8.57129Z" fill="white"/>
<path d="M27.1428 19.9999H30V28.5713H27.1428V19.9999Z" fill="white"/>
<path d="M27.1428 11.4284H30V17.1427H27.1428V11.4284Z" fill="white"/>
<path d="M21.4286 8.57129H27.1428V11.4284H21.4286V8.57129Z" fill="white"/>
<path d="M21.4286 17.1427H27.1428V19.9999H21.4286V17.1427Z" fill="white"/>
<path d="M32.8572 11.4284H35.7143V25.7141H32.8572V11.4284Z" fill="white"/>
<path d="M35.7143 25.7141H41.4286V28.5713H35.7143V25.7141Z" fill="white"/>
<path d="M35.7143 8.57129H41.4286V11.4284H35.7143V8.57129Z" fill="white"/>
<path d="M41.4286 11.4284H44.2857V25.7141H41.4286V11.4284Z" fill="white"/>
<path d="M47.1428 11.4284H50V25.7141H47.1428V11.4284Z" fill="white"/>
<path d="M50 25.7141H55.7142V28.5713H50V25.7141Z" fill="white"/>
<path d="M50 8.57129H55.7142V11.4284H50V8.57129Z" fill="white"/>
<path d="M55.7142 19.9999H58.5714V25.7141H55.7142V19.9999Z" fill="white"/>
<path d="M55.7142 11.4284H58.5714V14.2856H55.7142V11.4284Z" fill="white"/>
<path d="M61.4286 8.57129H64.2857V28.5713H61.4286V8.57129Z" fill="white"/>
<path d="M64.2857 17.1427H67.1429V19.9999H64.2857V17.1427Z" fill="white"/>
<path d="M67.1429 14.2856H70V17.1427H67.1429V14.2856Z" fill="white"/>
<path d="M67.1429 19.9999H70V22.857H67.1429V19.9999Z" fill="white"/>
<path d="M70 22.857H72.8572V28.5713H70V22.857Z" fill="white"/>
<path d="M70 8.57129H72.8572V14.2856H70V8.57129Z" fill="white"/>
</g>
<defs>
<filter id="filter0_ddd_18_593" x="18.5714" y="8.57129" width="56.2858" height="22" filterUnits="userSpaceOnUse" color-interpolation-filters="sRGB">
<feFlood flood-opacity="0" result="BackgroundImageFix"/>
<feColorMatrix in="SourceAlpha" type="matrix" values="0 0 0 0 0 0 0 0 0 0 0 0 0 0 0 0 0 0 127 0" result="hardAlpha"/>
<feOffset dy="2"/>
<feComposite in2="hardAlpha" operator="out"/>
<feColorMatrix type="matrix" values="0 0 0 0 0.501961 0 0 0 0 0.470588 0 0 0 0 0.439216 0 0 0 1 0"/>
<feBlend mode="normal" in2="BackgroundImageFix" result="effect1_dropShadow_18_593"/>
<feColorMatrix in="SourceAlpha" type="matrix" values="0 0 0 0 0 0 0 0 0 0 0 0 0 0 0 0 0 0 127 0" result="hardAlpha"/>
<feOffset dx="2"/>
<feComposite in2="hardAlpha" operator="out"/>
<feColorMatrix type="matrix" values="0 0 0 0 0.501961 0 0 0 0 0.470588 0 0 0 0 0.439216 0 0 0 1 0"/>
<feBlend mode="normal" in2="effect1_dropShadow_18_593" result="effect2_dropShadow_18_593"/>
<feColorMatrix in="SourceAlpha" type="matrix" values="0 0 0 0 0 0 0 0 0 0 0 0 0 0 0 0 0 0 127 0" result="hardAlpha"/>
<feOffset dx="2" dy="2"/>
<feComposite in2="hardAlpha" operator="out"/>
<feColorMatrix type="matrix" values="0 0 0 0 0.501961 0 0 0 0 0.470588 0 0 0 0 0.439216 0 0 0 1 0"/>
<feBlend mode="normal" in2="effect2_dropShadow_18_593" result="effect3_dropShadow_18_593"/>
<feBlend mode="normal" in="SourceGraphic" in2="effect3_dropShadow_18_593" result="shape"/>
</filter>
</defs>
</svg>
