<svg width="92" height="40" viewBox="0 0 92 40" fill="none" xmlns="http://www.w3.org/2000/svg">
<path d="M0.571411 2.85714V37.1428H3.42855V40H89.1428V37.1428H92V2.85714H89.1428V0H3.42855V2.85714H0.571411Z" fill="#6890F0"/>
<rect x="3.42859" width="85.7143" height="2.85714" fill="#98D8D8"/>
<rect x="0.571411" y="2.85693" width="2.85714" height="2.85714" fill="#98D8D8"/>
<rect x="89.1428" y="2.85693" width="2.85714" height="2.85714" fill="#98D8D8"/>
<rect x="89.1428" y="40" width="85.7143" height="2.85714" transform="rotate(180 89.1428 40)" fill="black" fill-opacity="0.5"/>
<rect x="92" y="37.1426" width="2.85714" height="2.85714" transform="rotate(180 92 37.1426)" fill="black" fill-opacity="0.5"/>
<rect x="3.42859" y="37.1426" width="2.85714" height="2.85714" transform="rotate(180 3.42859 37.1426)" fill="black" fill-opacity="0.5"/>
<g filter="url(#filter0_ddd_18_407)">
<path d="M44.8571 11.4284H47.7143V28.5713H44.8571V11.4284Z" fill="white"/>
<path d="M42 8.57129H50.5714V11.4284H42V8.57129Z" fill="white"/>
<path d="M53.4286 17.1427H62V19.9999H53.4286V17.1427Z" fill="white"/>
<path d="M56.2857 11.4284L56.2857 25.7141H53.4286L53.4286 11.4284L56.2857 11.4284Z" fill="white"/>
<path d="M53.4286 25.7141H64.8572V28.5713H53.4286L53.4286 25.7141Z" fill="white"/>
<path d="M53.4286 8.57129H64.8572V11.4284L53.4286 11.4284L53.4286 8.57129Z" fill="white"/>
<path d="M36.2858 11.4284H39.1429V28.5713H36.2858V11.4284Z" fill="white"/>
<path d="M27.7144 11.4284H30.5715V28.5713H27.7144V11.4284Z" fill="white"/>
<path d="M30.5715 8.57129H36.2858V11.4284H30.5715V8.57129Z" fill="white"/>
<path d="M30.5715 17.1427H36.2858V19.9999H30.5715V17.1427Z" fill="white"/>
<path d="M13.4286 8.57129H16.2857V28.5713H13.4286V8.57129Z" fill="white"/>
<path d="M22 8.57129H24.8572V28.5713H22V8.57129Z" fill="white"/>
<path d="M16.2857 22.857H22V25.7141H16.2857V22.857Z" fill="white"/>
<path d="M67.7142 8.57129H70.5714V28.5713H67.7142V8.57129Z" fill="white"/>
<path d="M76.2857 19.9999H79.1428V28.5713H76.2857V19.9999Z" fill="white"/>
<path d="M76.2857 11.4284H79.1428V17.1427H76.2857V11.4284Z" fill="white"/>
<path d="M70.5714 8.57129H76.2857V11.4284H70.5714V8.57129Z" fill="white"/>
<path d="M70.5714 17.1427H76.2857V19.9999H70.5714V17.1427Z" fill="white"/>
</g>
<defs>
<filter id="filter0_ddd_18_407" x="13.4286" y="8.57129" width="67.7142" height="22" filterUnits="userSpaceOnUse" color-interpolation-filters="sRGB">
<feFlood flood-opacity="0" result="BackgroundImageFix"/>
<feColorMatrix in="SourceAlpha" type="matrix" values="0 0 0 0 0 0 0 0 0 0 0 0 0 0 0 0 0 0 127 0" result="hardAlpha"/>
<feOffset dy="2"/>
<feComposite in2="hardAlpha" operator="out"/>
<feColorMatrix type="matrix" values="0 0 0 0 0.501961 0 0 0 0 0.470588 0 0 0 0 0.439216 0 0 0 1 0"/>
<feBlend mode="normal" in2="BackgroundImageFix" result="effect1_dropShadow_18_407"/>
<feColorMatrix in="SourceAlpha" type="matrix" values="0 0 0 0 0 0 0 0 0 0 0 0 0 0 0 0 0 0 127 0" result="hardAlpha"/>
<feOffset dx="2"/>
<feComposite in2="hardAlpha" operator="out"/>
<feColorMatrix type="matrix" values="0 0 0 0 0.501961 0 0 0 0 0.470588 0 0 0 0 0.439216 0 0 0 1 0"/>
<feBlend mode="normal" in2="effect1_dropShadow_18_407" result="effect2_dropShadow_18_407"/>
<feColorMatrix in="SourceAlpha" type="matrix" values="0 0 0 0 0 0 0 0 0 0 0 0 0 0 0 0 0 0 127 0" result="hardAlpha"/>
<feOffset dx="2" dy="2"/>
<feComposite in2="hardAlpha" operator="out"/>
<feColorMatrix type="matrix" values="0 0 0 0 0.501961 0 0 0 0 0.470588 0 0 0 0 0.439216 0 0 0 1 0"/>
<feBlend mode="normal" in2="effect2_dropShadow_18_407" result="effect3_dropShadow_18_407"/>
<feBlend mode="normal" in="SourceGraphic" in2="effect3_dropShadow_18_407" result="shape"/>
</filter>
</defs>
</svg>
