<svg width="316" height="358" viewBox="0 0 316 358" fill="none" xmlns="http://www.w3.org/2000/svg">
<rect width="276" height="40" transform="matrix(-1 0 0 1 316 317)" fill="#CECECE"/>
<rect width="316" height="318" fill="#DEDEDE"/>
<rect x="32" y="32" width="252" height="199" fill="#232323"/>
<rect y="318" width="40" height="40" fill="#D42B4D"/>
<rect y="278" width="40" height="40" fill="#CECECE"/>
<rect x="213" y="278" width="40" height="40" fill="#A6A6A6"/>
<rect x="245" y="191" width="32" height="32" fill="#393939"/>
<rect x="213" y="191" width="32" height="32" fill="#393939"/>
<rect x="213" y="159" width="32" height="32" fill="#393939"/>
<rect x="213" y="127" width="32" height="32" fill="#393939"/>
<rect x="181" y="191" width="32" height="32" fill="#393939"/>
<rect x="181" y="159" width="32" height="32" fill="#393939"/>
<rect x="149" y="191" width="32" height="32" fill="#393939"/>
<rect x="245" y="159" width="32" height="32" fill="#393939"/>
<rect x="245" y="127" width="32" height="32" fill="#393939"/>
<rect x="245" y="95" width="32" height="32" fill="#393939"/>
<rect x="72.5" y="72.5" width="32.5" height="32.5" transform="rotate(180 72.5 72.5)" fill="#393939"/>
<rect x="105" y="72.5" width="32.5" height="32.5" transform="rotate(180 105 72.5)" fill="#393939"/>
<rect x="105" y="105" width="32.5" height="32.5" transform="rotate(180 105 105)" fill="#393939"/>
<rect x="105" y="137.5" width="32.5" height="32.5" transform="rotate(180 105 137.5)" fill="#393939"/>
<rect x="137.5" y="72.5" width="32.5" height="32.5" transform="rotate(180 137.5 72.5)" fill="#393939"/>
<rect x="137.5" y="105" width="32.5" height="32.5" transform="rotate(180 137.5 105)" fill="#393939"/>
<rect x="170" y="72.5" width="32.5" height="32.5" transform="rotate(180 170 72.5)" fill="#393939"/>
<rect x="72.5" y="105" width="32.5" height="32.5" transform="rotate(180 72.5 105)" fill="#393939"/>
<rect x="72.5" y="137.5" width="32.5" height="32.5" transform="rotate(180 72.5 137.5)" fill="#393939"/>
<rect x="72.5" y="170" width="32.5" height="32.5" transform="rotate(180 72.5 170)" fill="#393939"/>
<rect x="253" y="278" width="40" height="40" fill="#A6A6A6"/>
<rect x="80" y="278" width="40" height="40" fill="#D42B4D"/>
<rect x="40" y="32" width="236" height="8" fill="black"/>
<rect x="40" y="223" width="236" height="8" fill="black"/>
<rect x="284" y="32" width="199" height="7.99999" transform="rotate(90 284 32)" fill="black"/>
<rect x="40" y="32" width="199" height="7.99999" transform="rotate(90 40 32)" fill="black"/>
<rect width="16" height="16" transform="matrix(-1 0 0 1 162 8)" fill="#89061C"/>
<rect width="16" height="16" transform="matrix(-1 0 0 1 186 8)" fill="#89061C"/>
</svg>
